<?xml version="1.0" standalone="no"?><!DOCTYPE svg PUBLIC "-//W3C//DTD SVG 1.1//EN" "http://www.w3.org/Graphics/SVG/1.1/DTD/svg11.dtd"><svg t="1733110624194" class="icon" viewBox="0 0 1024 1024" version="1.1" xmlns="http://www.w3.org/2000/svg" p-id="10135" xmlns:xlink="http://www.w3.org/1999/xlink" width="200" height="200"><path d="M972.8 1024c30.72 0 51.143111-20.48 51.143111-51.2V51.256889c0-30.663111-20.423111-51.143111-51.143111-51.143111H563.086222c-30.606222 0-51.143111 20.48-51.143111 51.143111 0 30.776889 20.536889 51.2 51.2 51.2h358.456889V921.6h-819.2V563.2c-0.056889-30.663111-20.536889-51.143111-51.256889-51.143111-30.776889 0-51.143111 20.48-51.143111 51.143111v409.6c0 30.72 20.366222 51.2 51.143111 51.2h921.656889zM358.4 409.656889c30.663111 0 51.143111-20.48 51.143111-51.2v-307.2c0-30.663111-20.48-51.143111-51.2-51.143111h-307.2c-30.776889 0-51.143111 20.48-51.143111 51.143111v307.2c0 30.72 20.366222 51.2 51.143111 51.2h307.2z m409.6 409.543111a46.648889 46.648889 0 0 0 35.84-15.36 49.607111 49.607111 0 0 0 0-71.623111L634.823111 563.2h133.176889c30.72 0 51.143111-20.423111 51.143111-51.143111s-20.423111-51.2-51.143111-51.2h-256c-30.72 0-51.2 20.48-51.2 51.2v256c0 30.663111 20.48 51.143111 51.143111 51.143111s51.2-20.48 51.2-51.143111v-133.12l168.96 168.903111a46.648889 46.648889 0 0 0 35.896889 15.36z" fill="#ffffff" p-id="10136"></path></svg>